<svg width="578" height="247" viewBox="0 0 578 247" fill="none" xmlns="http://www.w3.org/2000/svg">
<g clip-path="url(#clip0_19_2)">
<path d="M192.637 19.6066C164.308 64.1199 134.344 82.2946 108.064 87.7279C108.064 87.7279 92.7407 93.0146 68.0036 87.1639C62.4208 85.8879 57.3729 84.2239 52.9183 82.5012C37.476 76.6226 19.4807 66.4066 0 49.1826V48.1732C15.6203 59.7546 46.2661 76.6812 84.6333 68.6932C95.0568 66.0799 105.569 62.3386 115.636 57.0519C121.813 53.8159 127.811 49.9852 133.543 45.5012C139.244 41.0466 144.649 35.9092 149.668 29.9999C147.529 32.1079 112.667 65.6346 48.226 65.5159C103.728 -47.0908 192.637 19.6066 192.637 19.6066Z" fill="#53BF36"/>
<path d="M184.679 101.835C184.591 103.645 184.56 105.487 184.56 107.328C184.56 119.533 186.432 132.154 190.856 144.893C190.203 142.369 178.651 95.1827 211.435 39.4133C280.568 144.18 178.116 187.24 178.116 187.24C153.973 140.291 153.439 105.249 162.021 79.8293C162.021 79.8293 165.199 63.9427 182.779 45.5307C186.669 41.3733 190.648 37.84 194.42 34.8693C207.843 24.0893 226.669 13.28 253.069 5.05467V5.61867C235.548 12.6573 203.357 30.4453 190.321 69.1987C187.292 79.532 185.213 90.4893 184.679 101.835Z" fill="#53BF36"/>
<path d="M160.12 246.84H159.616C162.437 228.28 163.505 191.189 136.453 160.157C129.089 152.317 120.684 145.012 111.152 138.805C105.302 135.035 99.036 131.649 92.2953 128.857C85.6136 126.096 78.4864 123.898 70.914 122.384C73.7645 123.215 120.061 137.201 151.509 193.447C26.162 200.187 40.7724 90.0145 40.7724 90.0145C93.4828 92.8959 123.981 110.149 141.591 130.401C141.591 130.401 153.707 141.152 160.715 165.621C162.319 171.085 163.387 176.312 164.04 181.062C166.595 198.108 166.357 219.876 160.12 246.84Z" fill="#53BF36"/>
<path d="M395.421 62.0001V68.8761H361.024V185.463H341.449V68.8761H307.229V62.0001H395.421Z" fill="white"/>
<path d="M457.148 157.419L429.28 82.4588L400.708 157.419H457.148ZM380.071 185.463L425.752 73.1108L421.699 62.0001H441.803L477.607 157.419H489.072V164.299H480.252L488.193 185.463H467.557L459.62 164.299H398.24L390.125 185.463H380.071Z" fill="white"/>
<path d="M504.595 185.463V62.0001H524.347V185.463H504.595Z" fill="white"/>
</g>
<defs>
<clipPath id="clip0_19_2">
<rect width="577.76" height="246.84" fill="white"/>
</clipPath>
</defs>
</svg>
